<svg xmlns="http://www.w3.org/2000/svg" xmlns:xlink="http://www.w3.org/1999/xlink" width="1124" zoomAndPan="magnify" viewBox="0 0 842.88 325.499995" height="434" preserveAspectRatio="xMidYMid meet" version="1.0"><defs><clipPath id="603e4075b2"><path d="M 0.585938 20 L 841.542969 20 L 841.542969 281 L 0.585938 281 Z M 0.585938 20 " clip-rule="nonzero"/></clipPath><clipPath id="c260eb5d51"><path d="M 0.585938 74 L 841.542969 74 L 841.542969 281 L 0.585938 281 Z M 0.585938 74 " clip-rule="nonzero"/></clipPath><clipPath id="95816ca00a"><path d="M 0.585938 127 L 841.542969 127 L 841.542969 281 L 0.585938 281 Z M 0.585938 127 " clip-rule="nonzero"/></clipPath><clipPath id="0c80fd0457"><path d="M 0.585938 180 L 153 180 L 153 281 L 0.585938 281 Z M 0.585938 180 " clip-rule="nonzero"/></clipPath><clipPath id="9e28cf02ba"><path d="M 315 201 L 841.542969 201 L 841.542969 281 L 315 281 Z M 315 201 " clip-rule="nonzero"/></clipPath></defs><g clip-path="url(#603e4075b2)"><path fill="#7a0df9" d="M 841.214844 94.96875 L 841.214844 280.429688 L 0.917969 280.429688 L 0.917969 20.695312 C 6.65625 22.085938 11.90625 23.480469 16.480469 24.699219 C 132.492188 55.671875 145.933594 151.410156 224.605469 162.8125 C 302.078125 174.035156 313.878906 84.78125 423.046875 51.355469 C 590.914062 -0.0429688 713.800781 164.796875 841.214844 94.96875 Z M 841.214844 94.96875 " fill-opacity="1" fill-rule="nonzero"/></g><g clip-path="url(#c260eb5d51)"><path fill="#660ad6" d="M 841.214844 148.359375 L 841.214844 280.429688 L 0.917969 280.429688 L 0.917969 74.085938 C 6.65625 75.472656 11.90625 76.871094 16.480469 78.089844 C 132.492188 109.058594 145.933594 204.800781 224.605469 216.203125 C 302.078125 227.425781 313.878906 138.167969 423.046875 104.742188 C 590.914062 53.347656 713.800781 218.1875 841.214844 148.359375 Z M 841.214844 148.359375 " fill-opacity="1" fill-rule="nonzero"/></g><g clip-path="url(#95816ca00a)"><path fill="#5308b4" d="M 841.214844 201.746094 L 841.214844 280.429688 L 0.917969 280.429688 L 0.917969 127.476562 C 6.65625 128.863281 11.90625 130.261719 16.480469 131.480469 C 132.492188 162.449219 145.933594 258.199219 224.605469 269.589844 C 302.078125 280.816406 313.878906 191.566406 423.046875 158.132812 C 590.914062 106.738281 713.800781 271.578125 841.214844 201.746094 Z M 841.214844 201.746094 " fill-opacity="1" fill-rule="nonzero"/></g><g clip-path="url(#0c80fd0457)"><path fill="#3f0591" d="M 152.773438 280.429688 L 0.917969 280.429688 L 0.917969 180.867188 C 6.65625 182.253906 11.90625 183.652344 16.480469 184.871094 C 87.542969 203.84375 120.121094 247.121094 152.773438 280.429688 Z M 152.773438 280.429688 " fill-opacity="1" fill-rule="nonzero"/></g><g clip-path="url(#9e28cf02ba)"><path fill="#3f0591" d="M 841.214844 280.429688 L 315.667969 280.429688 C 341.109375 256.070312 371.027344 227.457031 423.046875 211.523438 C 590.914062 160.128906 713.800781 324.96875 841.214844 255.136719 Z M 841.214844 280.429688 " fill-opacity="1" fill-rule="nonzero"/></g></svg>